<svg width="182" height="30" viewBox="0 0 182 30" fill="none" xmlns="http://www.w3.org/2000/svg">
<g clip-path="url(#clip0_0_8)">
<path d="M14.2626 15.2187C12.693 13.9664 10.8719 13.3046 8.99067 13.3046C4.75896 13.3046 1.17583 16.7363 0.0766137 21.8359C-0.114793 22.7448 0.0561058 23.6887 0.548293 24.427C1.02681 25.1445 1.74486 25.5546 2.51048 25.5546H32.375C26.7313 25.5546 23.8985 23.5241 19.6219 19.8398L14.2626 15.2187ZM27.0977 14.2234L25.614 5.66479C25.4568 4.72144 24.9168 3.88745 24.1309 3.35425C23.3451 2.82104 22.3678 2.6269 21.4381 2.82515L10.9868 5.04792C9.49927 5.36237 8.39458 6.59448 8.23052 8.09839L7.85318 11.664C8.22915 11.6162 8.59802 11.5546 8.98794 11.5546C11.2777 11.5546 13.4723 12.3476 15.4083 13.8996L20.7676 18.5136C24.6504 21.8632 27.0622 23.8046 32.3723 23.8046C33.8215 23.8046 34.9973 22.6289 34.9973 21.1796C35 19.7906 33.3813 14.65 27.0977 14.2234Z" fill="black"/>
</g>
<path d="M47.275 24V10.25C47.275 8.73333 47.725 7.525 48.625 6.625C49.525 5.70833 50.8083 5.25 52.475 5.25C53.0417 5.25 53.5833 5.30833 54.1 5.425C54.6333 5.54167 55.0833 5.725 55.45 5.975L54.425 8.8C54.2083 8.65 53.9667 8.53333 53.7 8.45C53.4333 8.36667 53.15 8.325 52.85 8.325C52.2833 8.325 51.8417 8.49167 51.525 8.825C51.225 9.14167 51.075 9.625 51.075 10.275V11.525L51.175 13.2V24H47.275ZM45.2 13.85V10.85H54.525V13.85H45.2ZM64.4738 24V21.375L64.2238 20.8V16.1C64.2238 15.2667 63.9655 14.6167 63.4488 14.15C62.9488 13.6833 62.1738 13.45 61.1238 13.45C60.4072 13.45 59.6988 13.5667 58.9988 13.8C58.3155 14.0167 57.7322 14.3167 57.2488 14.7L55.8488 11.975C56.5822 11.4583 57.4655 11.0583 58.4988 10.775C59.5322 10.4917 60.5822 10.35 61.6488 10.35C63.6988 10.35 65.2905 10.8333 66.4238 11.8C67.5572 12.7667 68.1238 14.275 68.1238 16.325V24H64.4738ZM60.3738 24.2C59.3238 24.2 58.4238 24.025 57.6738 23.675C56.9238 23.3083 56.3488 22.8167 55.9488 22.2C55.5488 21.5833 55.3488 20.8917 55.3488 20.125C55.3488 19.325 55.5405 18.625 55.9238 18.025C56.3238 17.425 56.9488 16.9583 57.7988 16.625C58.6488 16.275 59.7572 16.1 61.1238 16.1H64.6988V18.375H61.5488C60.6322 18.375 59.9988 18.525 59.6488 18.825C59.3155 19.125 59.1488 19.5 59.1488 19.95C59.1488 20.45 59.3405 20.85 59.7238 21.15C60.1238 21.4333 60.6655 21.575 61.3488 21.575C61.9988 21.575 62.5822 21.425 63.0988 21.125C63.6155 20.8083 63.9905 20.35 64.2238 19.75L64.8238 21.55C64.5405 22.4167 64.0238 23.075 63.2738 23.525C62.5238 23.975 61.5572 24.2 60.3738 24.2ZM71.6535 24V10.55H75.3785V14.35L74.8535 13.25C75.2535 12.3 75.8952 11.5833 76.7785 11.1C77.6618 10.6 78.7368 10.35 80.0035 10.35V13.95C79.8368 13.9333 79.6868 13.925 79.5535 13.925C79.4202 13.9083 79.2785 13.9 79.1285 13.9C78.0618 13.9 77.1952 14.2083 76.5285 14.825C75.8785 15.425 75.5535 16.3667 75.5535 17.65V24H71.6535ZM99.5719 10.35C100.639 10.35 101.58 10.5667 102.397 11C103.23 11.4167 103.88 12.0667 104.347 12.95C104.83 13.8167 105.072 14.9333 105.072 16.3V24H101.172V16.9C101.172 15.8167 100.947 15.0167 100.497 14.5C100.047 13.9833 99.4135 13.725 98.5969 13.725C98.0302 13.725 97.5219 13.8583 97.0719 14.125C96.6219 14.375 96.2719 14.7583 96.0219 15.275C95.7719 15.7917 95.6469 16.45 95.6469 17.25V24H91.7469V16.9C91.7469 15.8167 91.5219 15.0167 91.0719 14.5C90.6385 13.9833 90.0135 13.725 89.1969 13.725C88.6302 13.725 88.1219 13.8583 87.6719 14.125C87.2219 14.375 86.8719 14.7583 86.6219 15.275C86.3719 15.7917 86.2469 16.45 86.2469 17.25V24H82.3469V10.55H86.0719V14.225L85.3719 13.15C85.8385 12.2333 86.4969 11.5417 87.3469 11.075C88.2135 10.5917 89.1969 10.35 90.2969 10.35C91.5302 10.35 92.6052 10.6667 93.5219 11.3C94.4552 11.9167 95.0719 12.8667 95.3719 14.15L93.9969 13.775C94.4469 12.725 95.1635 11.8917 96.1469 11.275C97.1469 10.6583 98.2885 10.35 99.5719 10.35ZM114.99 29.05C113.724 29.05 112.499 28.8917 111.315 28.575C110.149 28.275 109.174 27.8167 108.39 27.2L109.94 24.4C110.507 24.8667 111.224 25.2333 112.09 25.5C112.974 25.7833 113.84 25.925 114.69 25.925C116.074 25.925 117.074 25.6167 117.69 25C118.324 24.3833 118.64 23.4667 118.64 22.25V20.225L118.89 16.85L118.84 13.45V10.55H122.54V21.75C122.54 24.25 121.89 26.0917 120.59 27.275C119.29 28.4583 117.424 29.05 114.99 29.05ZM114.39 23.35C113.14 23.35 112.007 23.0833 110.99 22.55C109.99 22 109.182 21.2417 108.565 20.275C107.965 19.2917 107.665 18.15 107.665 16.85C107.665 15.5333 107.965 14.3917 108.565 13.425C109.182 12.4417 109.99 11.6833 110.99 11.15C112.007 10.6167 113.14 10.35 114.39 10.35C115.524 10.35 116.524 10.5833 117.39 11.05C118.257 11.5 118.932 12.2083 119.415 13.175C119.899 14.125 120.14 15.35 120.14 16.85C120.14 18.3333 119.899 19.5583 119.415 20.525C118.932 21.475 118.257 22.1833 117.39 22.65C116.524 23.1167 115.524 23.35 114.39 23.35ZM115.165 20.15C115.849 20.15 116.457 20.0167 116.99 19.75C117.524 19.4667 117.94 19.075 118.24 18.575C118.54 18.075 118.69 17.5 118.69 16.85C118.69 16.1833 118.54 15.6083 118.24 15.125C117.94 14.625 117.524 14.2417 116.99 13.975C116.457 13.6917 115.849 13.55 115.165 13.55C114.482 13.55 113.874 13.6917 113.34 13.975C112.807 14.2417 112.382 14.625 112.065 15.125C111.765 15.6083 111.615 16.1833 111.615 16.85C111.615 17.5 111.765 18.075 112.065 18.575C112.382 19.075 112.807 19.4667 113.34 19.75C113.874 20.0167 114.482 20.15 115.165 20.15ZM134.42 24V21.375L134.17 20.8V16.1C134.17 15.2667 133.912 14.6167 133.395 14.15C132.895 13.6833 132.12 13.45 131.07 13.45C130.353 13.45 129.645 13.5667 128.945 13.8C128.262 14.0167 127.678 14.3167 127.195 14.7L125.795 11.975C126.528 11.4583 127.412 11.0583 128.445 10.775C129.478 10.4917 130.528 10.35 131.595 10.35C133.645 10.35 135.237 10.8333 136.37 11.8C137.503 12.7667 138.07 14.275 138.07 16.325V24H134.42ZM130.32 24.2C129.27 24.2 128.37 24.025 127.62 23.675C126.87 23.3083 126.295 22.8167 125.895 22.2C125.495 21.5833 125.295 20.8917 125.295 20.125C125.295 19.325 125.487 18.625 125.87 18.025C126.27 17.425 126.895 16.9583 127.745 16.625C128.595 16.275 129.703 16.1 131.07 16.1H134.645V18.375H131.495C130.578 18.375 129.945 18.525 129.595 18.825C129.262 19.125 129.095 19.5 129.095 19.95C129.095 20.45 129.287 20.85 129.67 21.15C130.07 21.4333 130.612 21.575 131.295 21.575C131.945 21.575 132.528 21.425 133.045 21.125C133.562 20.8083 133.937 20.35 134.17 19.75L134.77 21.55C134.487 22.4167 133.97 23.075 133.22 23.525C132.47 23.975 131.503 24.2 130.32 24.2ZM158.825 10.35C159.891 10.35 160.833 10.5667 161.65 11C162.483 11.4167 163.133 12.0667 163.6 12.95C164.083 13.8167 164.325 14.9333 164.325 16.3V24H160.425V16.9C160.425 15.8167 160.2 15.0167 159.75 14.5C159.3 13.9833 158.666 13.725 157.85 13.725C157.283 13.725 156.775 13.8583 156.325 14.125C155.875 14.375 155.525 14.7583 155.275 15.275C155.025 15.7917 154.9 16.45 154.9 17.25V24H151V16.9C151 15.8167 150.775 15.0167 150.325 14.5C149.891 13.9833 149.266 13.725 148.45 13.725C147.883 13.725 147.375 13.8583 146.925 14.125C146.475 14.375 146.125 14.7583 145.875 15.275C145.625 15.7917 145.5 16.45 145.5 17.25V24H141.6V10.55H145.325V14.225L144.625 13.15C145.091 12.2333 145.75 11.5417 146.6 11.075C147.466 10.5917 148.45 10.35 149.55 10.35C150.783 10.35 151.858 10.6667 152.775 11.3C153.708 11.9167 154.325 12.8667 154.625 14.15L153.25 13.775C153.7 12.725 154.416 11.8917 155.4 11.275C156.4 10.6583 157.541 10.35 158.825 10.35ZM174.593 24.2C173.06 24.2 171.71 23.9 170.543 23.3C169.393 22.7 168.501 21.8833 167.868 20.85C167.235 19.8 166.918 18.6083 166.918 17.275C166.918 15.925 167.226 14.7333 167.843 13.7C168.476 12.65 169.335 11.8333 170.418 11.25C171.501 10.65 172.726 10.35 174.093 10.35C175.41 10.35 176.593 10.6333 177.643 11.2C178.71 11.75 179.551 12.55 180.168 13.6C180.785 14.6333 181.093 15.875 181.093 17.325C181.093 17.475 181.085 17.65 181.068 17.85C181.051 18.0333 181.035 18.2083 181.018 18.375H170.093V16.1H178.968L177.468 16.775C177.468 16.075 177.326 15.4667 177.043 14.95C176.76 14.4333 176.368 14.0333 175.868 13.75C175.368 13.45 174.785 13.3 174.118 13.3C173.451 13.3 172.86 13.45 172.343 13.75C171.843 14.0333 171.451 14.4417 171.168 14.975C170.885 15.4917 170.743 16.1083 170.743 16.825V17.425C170.743 18.1583 170.901 18.8083 171.218 19.375C171.551 19.925 172.01 20.35 172.593 20.65C173.193 20.9333 173.893 21.075 174.693 21.075C175.41 21.075 176.035 20.9667 176.568 20.75C177.118 20.5333 177.618 20.2083 178.068 19.775L180.143 22.025C179.526 22.725 178.751 23.2667 177.818 23.65C176.885 24.0167 175.81 24.2 174.593 24.2Z" fill="black"/>
<defs>
<clipPath id="clip0_0_8">
<rect width="35" height="28" fill="white" transform="translate(0 1)"/>
</clipPath>
</defs>
</svg>
